<svg version="1.1" id="Layer_1" xmlns="http://www.w3.org/2000/svg" xmlns:xlink="http://www.w3.org/1999/xlink" x="0px" y="0px"
	 width="100%" viewBox="0 0 512 512" enable-background="new 0 0 512 512" xml:space="preserve">
<path fill="#000000" opacity="1.000000" stroke="none" 
	d="
M302.000000,513.000000 
	C201.357773,513.000000 101.215538,513.000000 1.036655,513.000000 
	C1.036655,342.399414 1.036655,171.798813 1.036655,1.099110 
	C171.558914,1.099110 342.117889,1.099110 512.838440,1.099110 
	C512.838440,171.666550 512.838440,342.333252 512.838440,513.000000 
	C442.798798,513.000000 372.649384,513.000000 302.000000,513.000000 
M279.395447,4.000088 
	C275.301788,3.666649 271.193848,2.929818 267.117096,3.074023 
	C253.921814,3.540768 240.691666,3.858100 227.564133,5.143728 
	C216.728058,6.204947 205.845673,7.862256 195.288330,10.482466 
	C171.853195,16.298803 149.633102,25.353840 128.769684,37.639442 
	C111.368385,47.886341 95.203033,59.797287 80.757668,73.885399 
	C73.680901,80.787148 66.715355,87.987404 60.850170,95.904968 
	C51.379589,108.689522 42.143536,121.758553 34.107723,135.468964 
	C22.385792,155.468475 13.984203,177.054962 9.746159,199.893951 
	C6.712012,216.245071 4.686573,232.832108 3.202812,249.402679 
	C2.397692,258.394196 3.381863,267.593323 4.079050,276.658783 
	C4.793986,285.955048 5.511143,295.330292 7.352951,304.443481 
	C10.693090,320.970367 15.448766,337.082367 21.783932,352.830322 
	C33.702961,382.458618 50.867428,408.579254 72.497604,431.810425 
	C79.676437,439.520660 87.492134,446.843628 95.915634,453.141174 
	C108.659477,462.668640 121.772392,471.856384 135.486191,479.895996 
	C155.485062,491.620178 177.070465,500.024872 199.909683,504.262268 
	C216.262650,507.296234 232.852631,509.315613 249.425385,510.797089 
	C258.417236,511.600922 267.616302,510.619324 276.681610,509.920563 
	C285.977295,509.204010 295.354095,508.490021 304.463379,506.635406 
	C320.984528,503.271790 337.105560,498.524933 352.853729,492.204132 
	C382.329712,480.373505 408.321594,463.299683 431.465027,441.832428 
	C439.309692,434.555908 446.747437,426.615540 453.153473,418.066162 
	C462.694000,405.333527 471.843323,392.197083 479.910065,378.497040 
	C491.676392,358.513885 499.836365,336.861267 504.290894,314.080780 
	C507.229858,299.050720 509.814758,283.813171 510.697662,268.560822 
	C511.475525,255.122635 509.843079,241.523926 508.964294,228.016296 
	C507.902069,211.688309 503.871368,195.941574 499.104034,180.346802 
	C493.131775,160.810638 484.538452,142.504837 474.032501,125.019753 
	C458.643585,99.407867 439.149231,77.329277 415.965942,58.661133 
	C398.423340,44.535088 379.137238,33.051315 358.405914,24.024488 
	C333.431549,13.150123 307.320526,6.912930 279.395447,4.000088 
z"/>
<path fill="#8700FF" opacity="1.000000" stroke="none" 
	d="
M279.863159,4.000155 
	C307.320526,6.912930 333.431549,13.150123 358.405914,24.024488 
	C379.137238,33.051315 398.423340,44.535088 415.965942,58.661133 
	C439.149231,77.329277 458.643585,99.407867 474.032501,125.019753 
	C484.538452,142.504837 493.131775,160.810638 499.104034,180.346802 
	C503.871368,195.941574 507.902069,211.688309 508.964294,228.016296 
	C509.843079,241.523926 511.475525,255.122635 510.697662,268.560822 
	C509.814758,283.813171 507.229858,299.050720 504.290894,314.080780 
	C499.836365,336.861267 491.676392,358.513885 479.910065,378.497040 
	C471.843323,392.197083 462.694000,405.333527 453.153473,418.066162 
	C446.747437,426.615540 439.309692,434.555908 431.465027,441.832428 
	C408.321594,463.299683 382.329712,480.373505 352.853729,492.204132 
	C337.105560,498.524933 320.984528,503.271790 304.463379,506.635406 
	C295.354095,508.490021 285.977295,509.204010 276.681610,509.920563 
	C267.616302,510.619324 258.417236,511.600922 249.425385,510.797089 
	C232.852631,509.315613 216.262650,507.296234 199.909683,504.262268 
	C177.070465,500.024872 155.485062,491.620178 135.486191,479.895996 
	C121.772392,471.856384 108.659477,462.668640 95.915634,453.141174 
	C87.492134,446.843628 79.676437,439.520660 72.497604,431.810425 
	C50.867428,408.579254 33.702961,382.458618 21.783932,352.830322 
	C15.448766,337.082367 10.693090,320.970367 7.352951,304.443481 
	C5.511143,295.330292 4.793986,285.955048 4.079050,276.658783 
	C3.381863,267.593323 2.397692,258.394196 3.202812,249.402679 
	C4.686573,232.832108 6.712012,216.245071 9.746159,199.893951 
	C13.984203,177.054962 22.385792,155.468475 34.107723,135.468964 
	C42.143536,121.758553 51.379589,108.689522 60.850170,95.904968 
	C66.715355,87.987404 73.680901,80.787148 80.757668,73.885399 
	C95.203033,59.797287 111.368385,47.886341 128.769684,37.639442 
	C149.633102,25.353840 171.853195,16.298803 195.288330,10.482466 
	C205.845673,7.862256 216.728058,6.204947 227.564133,5.143728 
	C240.691666,3.858100 253.921814,3.540768 267.117096,3.074023 
	C271.193848,2.929818 275.301788,3.666649 279.863159,4.000155 
M355.024597,315.475433 
	C335.505035,295.958801 315.985443,276.442200 295.766449,256.226288 
	C297.715637,254.701324 299.298065,253.705154 300.589325,252.417099 
	C322.770996,230.290024 344.941376,208.151459 367.057556,185.958923 
	C375.210602,177.777710 375.148956,169.341980 367.032593,161.095978 
	C362.590302,156.582794 358.089935,152.126648 353.605682,147.654877 
	C343.915894,137.992126 336.236053,137.973938 326.582123,147.621445 
	C304.656128,169.532913 282.725189,191.439560 260.866852,213.418335 
	C259.605011,214.687134 258.972626,216.581955 257.490295,219.150620 
	C254.922363,215.943268 253.900467,214.390717 252.614380,213.101715 
	C230.367294,190.804367 208.115097,168.511932 185.800308,146.282379 
	C178.045990,138.557678 169.429398,138.563110 161.597672,146.167114 
	C156.935043,150.694168 152.389603,155.342102 147.802032,159.946228 
	C138.135040,169.648102 138.088303,177.407135 147.678711,187.005356 
	C169.588516,208.932999 191.515091,230.843903 213.427155,252.769302 
	C214.684402,254.027328 215.872589,255.354340 217.224808,256.789215 
	C215.978256,258.105957 214.985382,259.205658 213.939346,260.252197 
	C191.554428,282.647491 169.143921,305.017212 146.784027,327.437439 
	C138.492920,335.750916 138.480515,344.026794 146.632248,352.312744 
	C151.190308,356.945831 155.807129,361.521240 160.409500,366.110596 
	C169.679749,375.354614 177.696457,375.332947 187.050247,365.988647 
	C208.980057,344.081024 230.889145,322.152588 252.815506,300.241516 
	C254.073685,298.984222 255.411224,297.806335 256.893707,296.421600 
	C258.450073,297.903320 259.785095,299.121613 261.062073,300.397949 
	C283.221771,322.547058 305.352692,344.724976 327.539734,366.846649 
	C335.748993,375.031738 344.256714,375.053192 352.419037,367.019775 
	C357.763824,361.759430 363.152283,356.535187 368.305634,351.090729 
	C374.784637,344.245911 374.715668,335.591583 368.222443,328.730286 
	C364.100159,324.374268 359.764557,320.220093 355.024597,315.475433 
z"/>
<path fill="#FEFEFF" opacity="1.000000" stroke="none" 
	d="
M355.274597,315.725433 
	C359.764557,320.220093 364.100159,324.374268 368.222443,328.730286 
	C374.715668,335.591583 374.784637,344.245911 368.305634,351.090729 
	C363.152283,356.535187 357.763824,361.759430 352.419037,367.019775 
	C344.256714,375.053192 335.748993,375.031738 327.539734,366.846649 
	C305.352692,344.724976 283.221771,322.547058 261.062073,300.397949 
	C259.785095,299.121613 258.450073,297.903320 256.893707,296.421600 
	C255.411224,297.806335 254.073685,298.984222 252.815506,300.241516 
	C230.889145,322.152588 208.980057,344.081024 187.050247,365.988647 
	C177.696457,375.332947 169.679749,375.354614 160.409500,366.110596 
	C155.807129,361.521240 151.190308,356.945831 146.632248,352.312744 
	C138.480515,344.026794 138.492920,335.750916 146.784027,327.437439 
	C169.143921,305.017212 191.554428,282.647491 213.939346,260.252197 
	C214.985382,259.205658 215.978256,258.105957 217.224808,256.789215 
	C215.872589,255.354340 214.684402,254.027328 213.427155,252.769302 
	C191.515091,230.843903 169.588516,208.932999 147.678711,187.005356 
	C138.088303,177.407135 138.135040,169.648102 147.802032,159.946228 
	C152.389603,155.342102 156.935043,150.694168 161.597672,146.167114 
	C169.429398,138.563110 178.045990,138.557678 185.800308,146.282379 
	C208.115097,168.511932 230.367294,190.804367 252.614380,213.101715 
	C253.900467,214.390717 254.922363,215.943268 257.490295,219.150620 
	C258.972626,216.581955 259.605011,214.687134 260.866852,213.418335 
	C282.725189,191.439560 304.656128,169.532913 326.582123,147.621445 
	C336.236053,137.973938 343.915894,137.992126 353.605682,147.654877 
	C358.089935,152.126648 362.590302,156.582794 367.032593,161.095978 
	C375.148956,169.341980 375.210602,177.777710 367.057556,185.958923 
	C344.941376,208.151459 322.770996,230.290024 300.589325,252.417099 
	C299.298065,253.705154 297.715637,254.701324 295.766449,256.226288 
	C315.985443,276.442200 335.505035,295.958801 355.274597,315.725433 
z"/>
</svg>